<svg version="1" xmlns="http://www.w3.org/2000/svg" width="336" height="336" viewBox="0 0 252.000000 252.000000"><path d="M9.5 70.4c-4.1 1.9-7.1 5.4-8.2 9.6-.5 1.9-.8 9.1-.8 16l.1 12.5 2.7.3 2.7.3V95.6c0-8 .5-14.5 1.1-16 1.4-3.1 6.4-5.5 10.4-5.1 1.7.2 5.7.7 9 1.1 3.3.3 6.9.8 7.9 1 1.1.2 4.8.6 8.3.9 3.5.3 7.8.7 9.6 1 1.8.2 5.7.7 8.7 1 3 .3 6.6.7 8 .9 1.4.3 5.7.7 9.5 1.1 3.9.4 8.5.9 10.3 1.1 1.8.2 5.6.6 8.5.9 2.8.3 6.8.7 8.7 1 5.4.7 19.8 2.3 26.5 3 3.3.3 7.6.8 9.5 1 1.9.3 5.5.7 8 1 2.5.2 6.8.7 9.5 1.1 7.4.8 12.5 1.4 17.5 1.8 2.5.3 6.3.7 8.5 1 2.2.3 8.4 1 13.7 1.6 5.4.5 11.2 1.2 13 1.4 6.6.9 12.4 1.6 18.8 2.2 11.8 1.2 16 5.3 15.5 15.2-.2 3.1-.6 13.3-1 22.7-.9 22.8-2.7 26.4-13.6 26.8-4.6.2-4.9.3-4.9 2.9s.3 2.8 4.3 2.8c7.6-.1 15.2-4.9 17.6-11.3 1.1-2.8 2.4-24.5 2.5-42.3.1-9.1-.1-10.4-2.4-13.7-3.1-4.6-8.1-7.4-14.5-8.1-2.7-.3-7.5-.8-10.5-1.2-3-.3-6.6-.8-8-.9-11.4-1.3-13.9-1.6-17-2-1.9-.3-6.4-.8-10-1.1-6.6-.6-8.1-.8-16-1.7-2.5-.3-7.6-.9-11.5-1.2-3.8-.4-7.7-.8-8.5-1-.8-.2-4.2-.7-7.5-1-3.3-.4-7.6-.8-9.5-1.1-1.9-.2-6-.6-9-.9-3-.2-6.8-.6-8.5-.9-3.3-.5-14.5-1.8-18.5-2.1-2.5-.2-11.9-1.3-17.5-2-1.6-.2-6.1-.7-10-1-3.8-.4-7.8-.9-8.7-1.1-.9-.1-4.8-.6-8.5-.9-3.7-.4-7.9-.8-9.3-1.1-1.4-.2-5.4-.6-9-.9-3.6-.4-7.6-.8-9-1-8-1.4-15.7-1.4-18.5-.1z"/><path d="M232 110.9c-2.1 1.4-2.1 39.8.1 41.2 1.8 1.1 3 1.1 4.8 0 2-1.3 2.2-38.8.3-40.8-1.6-1.5-3.1-1.6-5.2-.4zM.2 130.6l.3 17.9h3c1.7 0 3-.6 3.1-1.3.1-.6.2-2.9.3-5l.1-3.7 6.3-.1c7.2-.1 11.1-1.7 14.1-5.7 3.8-5.2 1.5-15-4.3-17.8-1.4-.6-7.2-1.4-12.9-1.7L0 112.7l.2 17.9zm20.9-8.7c1.4 1.7 1.8 3.3 1.4 5.1-1 4.2-3 5.4-9.5 5.6-6.6.2-6.2.8-6.2-8.1 0-5.8-.2-5.6 6.3-5.4 5.1.2 6.3.6 8 2.8zM151.7 113.7c-.2.4-.4 8.4-.3 17.8l.1 17 11.2.1c7.9 0 12.2-.4 14.2-1.4 3.2-1.5 5.7-4.8 5.5-7.2-.1-.8-.2-2.3-.3-3.3 0-1-1.3-3-2.7-4.4-1.4-1.4-2.2-2.8-1.6-3.2 1.7-1.1 3.1-4.7 2.8-7.4-.4-3.6-3.1-6.5-7.1-7.6-4-1.1-21.2-1.4-21.8-.4zm20.9 6.4c1.9 1.5 1.8 4.4-.2 6.3-1.1 1.1-3.5 1.6-8 1.6H158v-9.6l6.6.3c3.7.1 7.3.8 8 1.4zm.6 13.8c1.4.2 2.9 4.2 2.3 6.1-.9 3-5.9 4-16 3.1-1.1-.1-1.5-1.3-1.5-4.4 0-2.4.2-4.6.6-4.9.4-.5 11.1-.4 14.6.1zM184.4 131.2l.1 17.3 3.3.3 3.2.3V114h-6.6v17.2zM219.8 115.7c-2.1 2.6-1.9 31 .2 32.3 2 1.3 2.3 1.2 4.5-.4 1.6-1.2 1.8-2.8 1.7-16-.1-14.6-.7-17.6-3.7-17.6-.6 0-1.9.8-2.7 1.7zM208 119c-1.1.7-1.5 3.2-1.7 10.2-.2 14.3 1 17.3 5.8 14.8 1.7-1 1.9-2.2 1.9-12.5s-.2-11.5-1.9-12.5c-2.4-1.2-2.2-1.2-4.1 0z"/><path d="M36.9 122.7c-6.9 2.7-9.8 12.2-6.1 19.2 6 11.3 24.7 8.1 26.5-4.5.5-3.4-1.3-9.5-3.4-11.7-4.2-4.2-11.1-5.4-17-3zm11.6 6.8c3.7 3.6 3.2 10.3-1 12.5-7.3 3.9-12.8-1-11.6-10.3.1-.4 1-1.6 2.1-2.7 2.8-2.8 7.5-2.6 10.5.5zM56.3 121.7c-1 .4-1 1 0 3.1.8 1.5 3 7.5 5.1 13.3 3.6 10.3 3.7 10.5 6.8 10.5 2.9-.1 3.3-.6 5.9-7.1 1.5-3.9 3.1-7.9 3.4-9 .6-2.1 1.3-.7 5.9 11.6 1.5 4.2 2 4.7 4.6 4.5 1.6-.1 3.1-.4 3.3-.7.7-.6 8.5-22.5 8.9-24.5.2-1.3-.3-1.8-2.1-1.8-2.6 0-2.4-.4-8 14.1-1.5 4.1-2.9 5.5-3.2 3.3-.6-4.9-5.2-16.1-6.9-17-3.3-1.7-4.6-.1-8 9.6-1.8 5.2-3.4 9.3-3.6 9.2-.1-.2-1.8-4.6-3.6-9.8-3.4-9.5-4.4-10.7-8.5-9.3zM109.5 121.8c-3.6.8-8.4 5.2-9.3 8.5-3 11 4.2 19.4 15.7 18.3 6.5-.6 9.8-3.1 7.7-5.9-1.2-1.5-1.6-1.6-4.8-.3-1.9.8-4.3 1.3-5.4 1.1-1-.2-2.2-.4-2.6-.4-1.1-.1-4.8-3.9-4.8-5 0-.5 3.5-.9 7.8-.9 14.4 0 13.4.2 12.9-3.6-1.2-8.7-8.5-13.8-17.2-11.8zm10.3 8.7l1.2 2.5h-7.5c-4.1 0-7.5-.3-7.5-.8 0-1.8 3.2-5.1 5.3-5.4 3.5-.6 7.3 1.1 8.5 3.7zM129.9 128.2c0 3.7-.1 9.8-.1 13.5l-.1 6.8 3.2.1c3.4.1 3.2.5 3.5-9.1 0-3.3.5-6.9.9-8.1.8-2.3 5.3-4.8 6.8-3.9.8.6 1.3-3.3.7-5.3-.5-1.2-3.2-1-5.7.6-2 1.2-2.5 1.2-3.2.1-.4-.8-2-1.4-3.4-1.4-2.4-.1-2.5.1-2.6 6.7zM195.8 123.1c-2.4 1.4-2.6 14-.2 16.3.8.9 1.9 1.6 2.4 1.6 2.6 0 4-3.4 4-9.5 0-4.4-.5-6.8-1.6-7.9-1.8-1.9-2.3-1.9-4.6-.5zM109 153c0 1.1.6 2 1.4 2 2 0 2.8-2.7 1-3.4-2.3-.9-2.4-.8-2.4 1.4zM132 152c-1.2.7-1.2 1.2-.2 2.2.9.9 1.5.9 2.4 0 1.6-1.6-.2-3.4-2.2-2.2zM1 154.5c0 4.9 6.4 12.1 11.6 13.1 3.9.7 59.3 1.1 59.5.4.1-.3.3-1.5.4-2.8l.2-2.2H43.8c-32 0-32.9-.2-36.5-6.2-2-3.4-6.3-5-6.3-2.3zM70.6 153.9c-.4.5-.2 1.2.4 1.6.5.3 1 .4 1 0 0-.3.8-.1 1.8.4 1.5.8 1.9 2.1 1.7 5.8-.2 5.1 1 8.7 2.6 7.8.5-.4.9-3.5.9-7.1 0-6.3.3-6.9 3.8-6.5.6.1 1.2-.4 1.2-1.2 0-1.7-12.4-2.4-13.4-.8zM98.1 156.9c-1.4.4-2.7 1.3-2.9 2-.3 1 .2 1.2 2.3.7 1.7-.4 3.3-.2 4.3.6 1.3 1.1 1 1.4-2.3 1.8-5.2.7-6.8 3.4-3.6 6.1 1.2 1 2.8 1.6 3.3 1.2.6-.3 2.3-.6 3.8-.5 2.6.1 2.7-.2 2.5-4.2-.2-6.4-2.7-8.9-7.4-7.7zm4.4 8c.7 1.2-3.1 2.5-4.5 1.6-.6-.4-.8-1.1-.5-1.6.8-1.2 4.2-1.2 5 0zM116.2 157.7c-1.1 2.1-.9 9.3.2 11.1 1.3 2.2 2.6.2 2.6-4.3 0-7.7 5.6-7 6.2.8.2 2.3.8 4.2 1.3 4.2 1.4 0 1.8-6.6.5-9.9-.8-2.3-1.5-2.7-4.3-2.5-1.8.2-3.8 0-4.4-.4-.7-.4-1.6 0-2.1 1zM179.5 157.1c-5.7 1.6-7.1 6.4-3.1 10.4 2.4 2.4 5.5 2.5 8.3.2 1.4-1 .7-3.1-.8-2.2-1.7 1.1-4.9 1.4-5.4.4-.4-.5-.8-1.8-1-2.9-.5-2.4 3.1-4.8 4.7-3.2.6.6 1.7.8 2.4.5 3.7-1.4-.9-4.3-5.1-3.2zM191.3 157.5c-3.4 1.4-5 5.4-3.3 8.5 2.6 4.8 9.4 4.6 11.5-.3 2.5-5.9-2.3-10.7-8.2-8.2zm4.3 2.3c1.9 1.3 2.3 4.1.8 5.7-.9.8-1.9 1.5-2.4 1.5-1.8 0-3.9-3.1-3.3-4.8.6-1.6 2.2-3.2 3.3-3.2.3 0 1 .4 1.6.8zM85.5 162.7c.1 3 .7 5.9 1.3 6.5 1.3 1.3 1.4 1.2 1.6-4.5.1-2.3.7-3.5 2.4-4.2 3.5-1.5 2.6-3.2-1.7-3.2h-3.8l.2 5.4zM109 163c0 4.7.3 6 1.5 6s1.5-1.3 1.5-6-.3-6-1.5-6-1.5 1.3-1.5 6zM131.3 163c-.1 5.2.1 6.1 1.5 5.8 2.3-.4 2.4-11.1.1-11.6-1.2-.2-1.5 1-1.6 5.8zM138 163.1c0 4.6.3 5.9 1.5 5.9 1 0 1.5-1 1.5-3.3 0-4.2 2-7 4.3-6.1 1.6.6 2.2 3.3 1.7 7.7-.1 1.3.4 1.8 1.7 1.5 1.5-.3 1.8-1.2 1.6-4.7-.3-5.9-1.6-7.1-7.4-6.9l-4.9.1v5.8zM154.6 158.6c-4.1 4.1 0 10.9 5.9 9.8 1.9-.3 2.6-.1 2.2.8-.2.8-2 1.3-4.6 1.2-4.5-.1-5.8 1.9-1.8 3 7.1 1.9 9.8-.6 10-9.6l.2-6.3-5.2-.3c-3.6-.2-5.6.2-6.7 1.4zm7.7 1.3c1.1.1.8 4.9-.4 5.6-1.8 1.2-5.9-.4-5.9-2.3 0-2.4 1.8-4.1 3.8-3.7 1 .2 2 .4 2.5.4zM203 163c0 4.7.3 6 1.5 6 1.5 0 1.9-1.5 1.5-5.7-.2-2.7 3.1-4.8 4.8-3.1.7.7 1.2 2.9 1.2 5 0 2.7.4 3.8 1.5 3.8s1.5-1.1 1.5-4c0-4.5 2.8-7.1 4.9-4.6.7.8 1.1 1.8 1 2.2-.5 3.1.3 6.4 1.6 6.4 1.7 0 2.1-5.4.6-9.3-.9-2.3-1.3-2.4-10.5-2.5l-9.6-.1v5.9zM169.6 165.7c-1.3 1.4-.5 3.3 1.4 3.3 1.1 0 2-.6 2-1.4 0-1.5-2.4-2.8-3.4-1.9zM64.1 178.8c.2 1.5 0 3.3-.4 4-.5.6-.4 1.2.1 1.2.6 0 1.2-.7 1.6-1.5.3-.8.9-1.5 1.3-1.4.4.1 1.4.1 2.1 0 1.8-.1 1.1-4.3-.8-4.8-1.2-.4-1.3-.3-.1.5 1.7 1.3 1 3.5-1.3 3.8-1.4.2-1.7-.3-1.3-2.2.2-1.3 0-2.4-.5-2.4s-.8 1.2-.7 2.8zM73.3 176.7c-1.8.6-1.6 4.8.2 6.3 1 .9 1.5.9 1.5.1 0-.6-.4-1.1-1-1.1-1.4 0-1.2-3.8.3-4.3.6-.2 1-.7.7-.9-.3-.3-1.1-.3-1.7-.1zM77.3 177.4c.9.7 1.7 2 1.7 2.9 0 .9-.8 2.1-1.7 2.6-1 .6-1.4 1.1-.9 1.1.5 0 1.8-.7 2.7-1.6 2.1-1.9 1.2-4.7-1.8-5.8-1.7-.6-1.7-.5 0 .8zM86.7 176.7c-.3.4.1 1.7.9 2.8 1 1.3 1.4 1.5 1.4.4 0-2-1.6-4.3-2.3-3.2zM90.5 179.6c-1.8 4.3-1.9 5.2-.5 3.8 1.1-1.1 3.2-7.4 2.4-7.4-.2 0-1.1 1.6-1.9 3.6zM95 180c0 3.7.2 4 2.8 3.9 2.3-.2 2.4-.2.5-.6-1.3-.2-2.3-1.1-2.3-1.8 0-.9.8-1.2 2.1-1 1.2.3 1.8.1 1.5-.3-.4-.4-1.3-.7-1.8-.7-2.2 0-1.8-2.4.4-2.8 2-.4 2-.4-.4-.6-2.6-.1-2.8.2-2.8 3.9zM102.8 176.5c-.8.8.3 5.5 1.3 5.5.5 0 .6-1.2.3-2.8-.8-3.2-.9-3.4-1.6-2.7zM106.5 177.3c1.6 1.2 1.7 1.8.7 3-1 1.1-1 1.7 0 2.5s1.3.2 1.3-2.6c0-2.9-.4-3.7-2-4-2-.4-2-.4 0 1.1zM111.7 176.7c-.3.5-.4 2.1-.3 3.8.1 2.5.5 3 2.9 3.1 2.5.1 2.5.1.2-.3-2.7-.5-3.3-1.8-1.2-2.7.9-.5.9-.7 0-1.2-.7-.3-.9-1.2-.6-2 .5-1.4-.2-2-1-.7zM119.7 176.7c-1.1 1.1-.8 3.3.5 3.3.6 0 .8-.3.5-.7-.4-.3-.2-1.2.4-2 1.1-1.3-.2-1.9-1.4-.6zM124.2 177.6c1 1 2 1.5 2.4 1.2.3-.4-.5-1.2-1.8-1.8-2.2-1.2-2.2-1.2-.6.6zM132.9 176.7c0 .5-.2 1.6-.4 2.7-.6 3.2.6 4.7 3.4 4.4 2.1-.2 2.6-.8 2.7-3.3.1-1.7-.4-3.3-1-3.7-1.4-1-4.6-1-4.7-.1zm4.1 1.7c0 .8.3 2.2.6 3.1.5 1.3.2 1.6-1.7 1.3-1.3-.1-2.2-.8-2-1.3.1-.6.8-.9 1.5-.7.6.1.3-.4-.6-1.1-1.8-1.5-1.4-2.7.9-2.7.7 0 1.3.6 1.3 1.4zM141.3 178c.8 1.4 1.6 3.3 1.8 4.3.3 1 1 .1 2.1-2.6 1.4-3.5 1.4-3.8.2-2l-1.6 2.3-2-2.3-2-2.2 1.5 2.5zM152.4 179.7c.1 2.3.7 3.8 1.6 4.1 1.3.5 1.3.3.1-1.1-1.1-1.4-1.1-1.7 0-1.8.8-.1 1.9 0 2.4.1.6.1.6-.2.2-.7-.5-.4-1.4-.8-2-.8-.7 0-1.1-.8-.9-1.8.2-.9-.1-1.7-.6-1.7s-.8 1.7-.8 3.7zM155.8 176.7c.7.3 1.6.2 1.9-.1.4-.3-.2-.6-1.3-.5-1.1 0-1.4.3-.6.6zM160.7 176.7c-1 1-.8 6.3.2 6.3.5 0 .7-1.4.5-3-.4-2.5-.2-3 1.5-3 2.3 0 2.8 1.9.9 3.8-.7.7-.9 1.2-.6 1.2.4 0 1.4-.7 2.3-1.6 1.2-1.2 1.3-1.9.4-3-1.2-1.5-4.1-1.9-5.2-.7zM169.2 177.2c-2.5 2.5-.6 6.8 2.9 6.8 1 0 2.1-.5 2.5-1.2.4-.7.3-.8-.5-.4-2.1 1.3-5.2-.4-4.9-2.7.2-1.6 1-2.2 3-2.2 1.4.1 2.4-.3 2.2-.7-.8-1.2-3.8-1-5.2.4zM181 177.5c-2 2.4.3 6.5 3.5 6.5 2 0 2.5-.5 2.4-2.3-.1-1.7-.2-1.8-.6-.4-.6 2.2-3.2 1.9-4.7-.5-.8-1.4-.6-2.1.9-3.2 1.1-.9 1.5-1.6.9-1.6s-1.7.7-2.4 1.5zM189.9 180.2c.3 2.4.6 3.5.9 2.5.4-2.1 1.1-2.1 3.1-.3 1.4 1.3 1.6 1.1 1.7-1.7.1-3-.9-4.7-3-4.7-.6 0-.2.6.9 1.3 1 .8 1.5 1.9 1.1 2.5-1 1.6-3.6.3-3.6-1.9 0-1-.3-1.9-.8-1.9-.4 0-.5 1.9-.3 4.2zM199.3 176.7c-.7.2-1.3 1.8-1.3 3.4 0 2.3.5 3 2.7 3.5 2 .6 3.1.2 4.5-1.6 1.7-2.1 1.7-2.4.2-4.1-1.7-1.9-3.6-2.2-6.1-1.2zm5.2 3.3c0 1.8-.6 2.6-2.3 2.8-1.3.2-2.5-.3-2.8-1.2-1-2.6.4-4.8 2.8-4.4 1.7.2 2.3 1 2.3 2.8zM208 177c0 .5.5 1 1.1 1 .5 0 .7-.5.4-1-.3-.6-.8-1-1.1-1-.2 0-.4.4-.4 1zM213.9 179c-.3 2.8-.8 3.5-2.6 3.4-1.2 0-2 .3-1.7.8.3.4 1.4.8 2.4.8 2.1 0 3.5-3.5 2.7-6.7-.2-1.1-.6-.4-.8 1.7zM217.6 177.7c-.7 2.2-.3 5 .8 6 .5.4.6-.7.4-2.5-.5-3.6 1.4-5.4 3.5-3.3.8.8.6 1.5-.9 2.7-1.8 1.5-1.8 1.5.4.4 2.6-1.2 2.9-3.5.6-4.4-2.7-1-4.2-.7-4.8 1.1zM82.7 180.5c.9 1.9 2 3.2 2.3 3 1.1-.7 1.9-4.5 1-4.5-.5 0-1 .8-1.3 1.7-.3 1.4-.6 1.1-1.1-1-.5-1.5-1.2-2.7-1.7-2.7s-.1 1.6.8 3.5zM208 180c0 .5.5 1 1 1 .6 0 1-.5 1-1 0-.6-.4-1-1-1-.5 0-1 .4-1 1zM125.4 181.4c-.3.9-1.7 1.6-3.1 1.6-1.3 0-2.1-.4-1.8-1 .3-.6.1-1-.5-1-2.3 0-.3 2.5 2.2 2.8 2.4.3 5.7-2.2 4.5-3.5-.4-.3-.9.2-1.3 1.1z"/></svg>